<svg width="48" height="48" viewBox="0 0 48 48" fill="none" xmlns="http://www.w3.org/2000/svg">
  <defs>
    <linearGradient id="resolve-grad-main" x1="4" y1="4" x2="44" y2="44" gradientUnits="userSpaceOnUse">
      <stop offset="0%" stop-color="#4F46E5" />
      <stop offset="50%" stop-color="#6366F1" />
      <stop offset="100%" stop-color="#0D9488" />
    </linearGradient>
    <linearGradient id="resolve-grad-ribbon" x1="12" y1="8" x2="38" y2="38" gradientUnits="userSpaceOnUse">
      <stop offset="0%" stop-color="#FFFFFF" stop-opacity="0.95" />
      <stop offset="100%" stop-color="#E0E7FF" stop-opacity="0.85" />
    </linearGradient>
    <linearGradient id="resolve-grad-glow" x1="24" y1="6" x2="24" y2="42" gradientUnits="userSpaceOnUse">
      <stop offset="0%" stop-color="#38BDF8" stop-opacity="0.8" />
      <stop offset="100%" stop-color="#2DD4BF" stop-opacity="0.1" />
    </linearGradient>
    <linearGradient id="resolve-spark-grad" x1="28" y1="20" x2="38" y2="30" gradientUnits="userSpaceOnUse">
      <stop offset="0%" stop-color="#FFFFFF" />
      <stop offset="100%" stop-color="#A5F3FC" />
    </linearGradient>
  </defs>

  <rect x="3" y="3" width="42" height="42" rx="12" fill="url(#resolve-grad-main)" />
  <rect x="4" y="4" width="40" height="20" rx="11" fill="url(#resolve-grad-glow)" opacity="0.35" />
  <rect x="3.75" y="3.75" width="40.5" height="40.5" rx="11.25" stroke="#FFFFFF" stroke-opacity="0.22" stroke-width="1.5" />

  <!-- R Stem -->
  <path d="M14 13C14 11.8954 14.8954 11 16 11H18C19.1046 11 20 11.8954 20 13V35C20 36.1046 19.1046 37 18 37H16C14.8954 37 14 36.1046 14 35V13Z" fill="url(#resolve-grad-ribbon)" />

  <!-- R Upper Loop -->
  <path d="M19 11H27C31.4183 11 35 14.5817 35 19C35 23.4183 31.4183 27 27 27H19V11Z" fill="url(#resolve-grad-ribbon)" fill-opacity="0.95" />
  <path d="M20 16.5H26.5C27.8807 16.5 29 17.6193 29 19C29 20.3807 27.8807 21.5 26.5 21.5H20V16.5Z" fill="url(#resolve-grad-main)" />

  <!-- R Dynamic Forward Kick -->
  <path d="M24 24.5L33.2 35.5C33.7 36.1 34.6 36.4 35.4 36.2C36.4 35.9 36.8 34.8 36.3 34L28.2 24.5H24Z" fill="url(#resolve-grad-ribbon)" />

  <!-- AI Resolution Spark Diamond -->
  <path d="M32 12L33.2 15.8L37 17L33.2 18.2L32 22L30.8 18.2L27 17L30.8 15.8L32 12Z" fill="url(#resolve-spark-grad)" />
  <circle cx="20" cy="24" r="2" fill="#4F46E5" />
</svg>
